<svg height="24" viewBox="0 0 24 24" width="24" xmlns="http://www.w3.org/2000/svg"><path d="m19.9381062 13c-.4512476 3.6187173-3.3193889 6.4868586-6.9381062 6.9381062v2.0618938h-2v-2.0618938c-3.61871734-.4512476-6.48685858-3.3193889-6.93810625-6.9381062h-2.06189375v-2h2.06189375c.45124767-3.61871734 3.31938891-6.48685858 6.93810625-6.93810625v-2.06189375h2v2.06189375c3.6187173.45124767 6.4868586 3.31938891 6.9381062 6.93810625h2.0618938v2zm-7.9381062 5c3.3137085 0 6-2.6862915 6-6s-2.6862915-6-6-6-6 2.6862915-6 6 2.6862915 6 6 6zm0-3c1.6568542 0 3-1.3431458 3-3s-1.3431458-3-3-3-3 1.3431458-3 3 1.3431458 3 3 3z"/></svg>